<svg width="41" height="40" viewBox="0 0 41 40" fill="none" xmlns="http://www.w3.org/2000/svg">
<rect x="0.976318" width="40" height="40" rx="20" fill="#EBEAEA"/>
<g clip-path="url(#clip0_1357_176088)">
<path d="M12.9763 16H16.9763V12H12.9763V16ZM18.9763 28H22.9763V24H18.9763V28ZM12.9763 28H16.9763V24H12.9763V28ZM12.9763 22H16.9763V18H12.9763V22ZM18.9763 22H22.9763V18H18.9763V22ZM24.9763 12V16H28.9763V12H24.9763ZM18.9763 16H22.9763V12H18.9763V16ZM24.9763 22H28.9763V18H24.9763V22ZM24.9763 28H28.9763V24H24.9763V28Z" fill="#323232"/>
</g>
<defs>
<clipPath id="clip0_1357_176088">
<rect width="24" height="24" fill="white" transform="translate(8.97632 8)"/>
</clipPath>
</defs>
</svg>
