<svg id="Layer_1" data-name="Layer 1" xmlns="http://www.w3.org/2000/svg" viewBox="0 0 747.62 239.29"><defs><style>.cls-1{fill:#0d1d2d}</style></defs><path class="cls-1" d="M653.69 143.73c-.29-.44-22.42-33.92-57.22-15.92 0 0-25.6 16.1-33.33 41.13-6.47 23.79-11.2 27.73-15 55.85h98.64c-20.32-39.06-22.21-51.89-10.42-60 2.69-1.86 6.23-2.58 10.12-2.49 13.1.31 30.13 10 32.15 17.58-.03-.01 10.49-15.88-24.94-36.15z"/><path d="M625 188.84l-3.32 7.45-6-13.1-5.26 15.67-1.59-17.42-5.65 10.27 2-14.33-11.37 14.89-.25-11.59-7 8.7.23-19-8.29 15.2 1.34-12.71-8.93 12.35L571 168l-8.37 8c.67-2.2 1.3-4.41 1.93-6.71 7.29-23.62 31.37-39.41 32.63-40.22a42.67 42.67 0 0119.58-5.07c21.91 0 35.11 19.71 35.66 20.55l.2.3.32.19c18.32 10.46 23.81 19.56 25.19 25.35a13.72 13.72 0 01.22 5.67c-5.24-7.47-20.22-15-31.88-15.26h-.67a17.94 17.94 0 00-10.33 2.76c-9.47 6.51-10.37 15.7-3.29 33.84l-.18 3.11z" fill="#fff"/><path d="M616.77 125.49c20.78 0 33.86 19 34.39 19.85l.4.6.62.35c17.64 10.08 23 18.69 24.41 24.14a13.66 13.66 0 01.32 1.67c-6.85-6.75-19.77-12.6-30.42-12.85h-.72a19.41 19.41 0 00-11.17 3c-8.94 6.15-10.79 14.74-6 29.72l-.89-1.48-3-4.94-2.35 5.26-.81 1.8-2.94-6.61-3.16-6.87-2.45 7.16-1.8 5.35-.5-5.45-.89-9.78-4.08 7.43.08-.59 1.58-11.31-6.89 9.06-5.3 7-.07-3.18-.17-8.25-5.17 6.43-1.68 2.09.11-8.6.14-12.06-5.78 10.57-1.8 3.31 1.14-10.84-6.59 9.13-2.88 4 .06-9v-7.06l-5.12 4.87-1.79 1.7c.13-.44.25-.89.37-1.34 7.09-22.86 30.27-38.27 32-39.37a41.15 41.15 0 0118.8-4.91m0-3a43.8 43.8 0 00-20.3 5.31s-25.6 16.1-33.33 41.13c-1.29 4.75-2.51 8.7-3.67 12.21l10-9.56-.13 18.34 8.38-11.59-1.54 14.59 9-16.5-.18 17.29 7.12-8.88.25 11.75 10.5-13.75-2.33 16.75 7.21-13.12 1.79 19.62 6.33-18.83 5.84 12.67 3.5-7.84 8 13.34.49-8.28c-7.23-18.39-5.79-26.58 2.62-32.36a16.55 16.55 0 019.47-2.5h.65c13.1.31 30.13 10 32.15 17.58 0 0 10.52-15.91-24.91-36.14-.23-.35-14-21.23-36.92-21.23z" fill="#231f20"/><path class="cls-1" d="M728.13 121.49a102.93 102.93 0 00-205.85 0h.06v103.29h30V121.49h-.06a72.93 72.93 0 01145.85 0h.12v103.29h30V121.49z"/><path d="M614.43 136.59s9.42-1.56 23.6 11.14c0 0-8.72 10.59-17.68-1.17 0 0-2.57-9.11-5.92-9.97z" fill="#ed1c24"/><path class="cls-1" d="M273.82 104.08h-70.77a73 73 0 0170.73-55.16v-30a102.92 102.92 0 100 205.84v-30a73 73 0 01-71.88-60.68h71.92zm124.45 120.68a102.92 102.92 0 110-205.84v30a72.92 72.92 0 1072.93 73.41h-72.67v-30h102.66v29.51a103 103 0 01-102.92 102.92zM47.61 18.92v-.09h-30v205.88h29.68a102.92 102.92 0 00.32-205.84zm0 175.84V48.92a72.92 72.92 0 010 145.84z"/></svg>